HIERARCHY
ROOT Hips
{
	OFFSET 0.000000 0.000000 0.000000
	CHANNELS 6 Xposition Yposition Zposition Zrotation Yrotation Xrotation 
	JOINT LHipJoint
	{
		OFFSET 0.000000 0.000000 0.000000
		CHANNELS 3 Zrotation Yrotation Xrotation
		JOINT LeftUpLeg
		{
			OFFSET 1.363060 -1.794630 0.839290
			CHANNELS 3 Zrotation Yrotation Xrotation
			JOINT LeftLeg
			{
				OFFSET 2.448110 -6.726130 0.000000
				CHANNELS 3 Zrotation Yrotation Xrotation
				JOINT LeftFoot
				{
					OFFSET 2.562200 -7.039590 0.000000
					CHANNELS 3 Zrotation Yrotation Xrotation
					JOINT LeftToeBase
					{
						OFFSET 0.157640 -0.433110 2.322550
						CHANNELS 3 Zrotation Yrotation Xrotation
						End Site
						{
							OFFSET 0.000000 0.000000 0.000000
						}
					}
				}
			}
		}
	}
	JOINT RHipJoint
	{
		OFFSET 0.000000 0.000000 0.000000
		CHANNELS 3 Zrotation Yrotation Xrotation
		JOINT RightUpLeg
		{
			OFFSET -1.305520 -1.794630 0.839290
			CHANNELS 3 Zrotation Yrotation Xrotation
			JOINT RightLeg
			{
				OFFSET -2.542530 -6.985550 0.000000
				CHANNELS 3 Zrotation Yrotation Xrotation
				JOINT RightFoot
				{
					OFFSET -2.568260 -7.056230 0.000000
					CHANNELS 3 Zrotation Yrotation Xrotation
					JOINT RightToeBase
					{
						OFFSET -0.164730 -0.452590 2.363150
						CHANNELS 3 Zrotation Yrotation Xrotation
						End Site
						{
							OFFSET 0.000000 0.000000 0.000000
						}
					}
				}
			}
		}
	}
	JOINT LowerBack
	{
		OFFSET 0.000000 0.000000 0.000000
		CHANNELS 3 Zrotation Yrotation Xrotation
		JOINT Spine
		{
			OFFSET 0.028270 2.035590 -0.193380
			CHANNELS 3 Zrotation Yrotation Xrotation
			JOINT Spine1
			{
				OFFSET 0.056720 2.048850 -0.042750
				CHANNELS 3 Zrotation Yrotation Xrotation
				JOINT Neck
				{
					OFFSET 0.000000 0.000000 0.000000
					CHANNELS 3 Zrotation Yrotation Xrotation
					JOINT Neck1
					{
						OFFSET -0.054170 1.746240 0.172020
						CHANNELS 3 Zrotation Yrotation Xrotation
						JOINT Head
						{
							OFFSET 0.104070 1.761360 -0.123970
							CHANNELS 3 Zrotation Yrotation Xrotation
							End Site
							{
								OFFSET 0.000000 0.000000 0.000000
							}
						}
					}
				}
				JOINT LeftShoulder
				{
					OFFSET 0.000000 0.000000 0.000000
					CHANNELS 3 Zrotation Yrotation Xrotation
					JOINT LeftArm
					{
						OFFSET 3.362410 1.200890 -0.311210
						CHANNELS 3 Zrotation Yrotation Xrotation
						JOINT LeftForeArm
						{
							OFFSET 4.983000 -0.000000 -0.000000
							CHANNELS 3 Zrotation Yrotation Xrotation
							JOINT LeftHand
							{
								OFFSET 3.483560 -0.000000 -0.000000
								CHANNELS 3 Zrotation Yrotation Xrotation
								JOINT LeftFingerBase
								{
									OFFSET 0.000000 0.000000 0.000000
									CHANNELS 3 Zrotation Yrotation Xrotation
									JOINT LeftHandIndex1
									{
										OFFSET 0.715260 -0.000000 -0.000000
										CHANNELS 3 Zrotation Yrotation Xrotation
										End Site
										{
											OFFSET 0.000000 0.000000 0.000000
										}
									}
								}
								JOINT LThumb
								{
									OFFSET 0.000000 0.000000 0.000000
									CHANNELS 3 Zrotation Yrotation Xrotation
									End Site
									{
										OFFSET 0.000000 0.000000 0.000000
									}
								}
							}
						}
					}
				}
				JOINT RightShoulder
				{
					OFFSET 0.000000 0.000000 0.000000
					CHANNELS 3 Zrotation Yrotation Xrotation
					JOINT RightArm
					{
						OFFSET -3.136600 1.374050 -0.404650
						CHANNELS 3 Zrotation Yrotation Xrotation
						JOINT RightForeArm
						{
							OFFSET -5.241900 -0.000000 -0.000000
							CHANNELS 3 Zrotation Yrotation Xrotation
							JOINT RightHand
							{
								OFFSET -3.444170 -0.000000 -0.000000
								CHANNELS 3 Zrotation Yrotation Xrotation
								JOINT RightFingerBase
								{
									OFFSET 0.000000 0.000000 0.000000
									CHANNELS 3 Zrotation Yrotation Xrotation
									JOINT RightHandIndex1
									{
										OFFSET -0.622530 -0.000000 -0.000000
										CHANNELS 3 Zrotation Yrotation Xrotation
										End Site
										{
											OFFSET 0.000000 0.000000 0.000000
										}
									}
								}
								JOINT RThumb
								{
									OFFSET 0.000000 0.000000 0.000000
									CHANNELS 3 Zrotation Yrotation Xrotation
									End Site
									{
										OFFSET 0.000000 0.000000 0.000000
									}
								}
							}
						}
					}
				}
			}
		}
	}
}
MOTION
Frames: 10
Frame Time: 0.008333
-2.934830 16.418541 -0.630016 8.694809 68.073338 35.904115 -7.527074 -1.786429 -0.758763 -5.113158 -4.601354 -52.214454 -2.063307 1.260884 27.634713 0.270637 0.675972 2.307172 0.391000 -0.000000 -43.158100 11.355714 1.259088 -1.108142 -1.708466 11.893114 -31.493986 0.487843 -3.580962 53.399716 -0.581273 1.071596 -19.116434 0.072699 0.000000 -52.937500 -3.778290 1.742599 6.093134 -1.895137 1.956230 -1.993936 -6.356081 1.845657 -0.342387 10.880632 5.848867 4.858094 -4.310141 -0.418571 2.848805 0.000000 0.000000 0.000000 -7.042936 -0.379206 2.400798 -63.132964 10.044145 15.552836 -3.406157 -21.188719 -0.003922 -1.435556 2.384427 -0.029303 -0.060942 -0.055141 0.000000 0.000000 0.000000 0.000000 0.000000 0.000000 0.000000 20.532103 7.154419 -1.733666 87.853836 27.968893 42.685914 1.546012 47.251670 0.013308 5.001443 9.944245 0.455345 -0.073314 -0.294746 -0.000000 0.000000 0.000000 0.000000 0.000000 0.000000 0.000000 
-2.829994 16.362069 -0.618788 9.542615 67.517362 36.431549 -7.434407 -1.730089 -1.096730 -6.221698 -4.156670 -52.628378 -2.066565 1.489273 30.251822 0.335543 0.958085 1.178969 0.400300 0.000000 -42.226400 11.624030 1.308413 -1.189389 -2.268626 11.651764 -32.121668 0.226322 -3.818305 55.909330 -0.589338 0.643810 -18.396100 0.101799 0.000000 -54.026300 -4.328732 1.681646 6.510655 -2.022070 1.914972 -1.935390 -6.428392 1.804887 -0.449595 10.791211 6.193916 5.127317 -4.391363 -0.424327 2.903482 0.000000 0.000000 0.000000 -7.388849 -0.827415 2.470759 -62.431668 10.074196 16.673262 -3.442055 -20.998185 -0.004089 -1.687671 2.300253 -0.033512 -0.059858 -0.056512 0.000000 0.000000 0.000000 0.000000 0.000000 0.000000 0.000000 20.848629 7.374919 -1.786397 88.081148 28.040807 42.280484 1.507888 46.957936 0.012315 4.959879 10.210518 0.463927 -0.076935 -0.297716 -0.000000 0.000000 0.000000 0.000000 0.000000 0.000000 0.000000 
-2.727355 16.315054 -0.608903 10.260341 66.992160 36.800454 -7.345470 -1.678574 -1.429730 -7.226985 -3.755037 -52.801387 -2.078756 1.679875 32.539231 0.401858 1.220873 -0.188174 0.386500 -0.000001 -41.419300 11.869040 1.355100 -1.290745 -2.726825 11.416320 -32.629328 -0.044205 -4.034221 58.207134 -0.618428 0.085538 -17.457675 0.142400 0.000000 -54.912300 -4.790178 1.648627 6.965536 -2.131845 1.897248 -1.861074 -6.492711 1.788356 -0.535973 10.670017 6.560459 5.459710 -4.475662 -0.430293 2.971654 0.000000 0.000000 0.000000 -7.759976 -1.317822 2.527439 -61.780815 9.815019 17.738860 -3.480507 -20.463580 -0.004226 -1.913916 2.219488 -0.036918 -0.059103 -0.056974 0.000000 0.000000 0.000000 0.000000 0.000000 0.000000 0.000000 21.121925 7.575795 -1.857298 88.225558 28.092398 41.649406 1.470129 46.563345 0.010825 4.802186 10.549900 0.464211 -0.078831 -0.299749 -0.000000 0.000000 0.000000 0.000000 0.000000 0.000000 0.000000 
-2.625944 16.278189 -0.600642 10.822737 66.490920 36.983442 -7.266483 -1.633583 -1.754469 -8.109441 -3.381538 -52.732462 -2.100064 1.833322 34.483468 0.467884 1.451641 -1.705155 0.347900 0.000001 -40.822600 12.085932 1.397504 -1.409432 -3.067118 11.197622 -33.009029 -0.316608 -4.227160 60.287824 -0.676151 -0.623415 -16.361058 0.189900 0.000000 -55.368499 -5.154420 1.646667 7.449166 -2.222320 1.906564 -1.770079 -6.546354 1.799691 -0.591319 10.515190 6.940074 5.845498 -4.560978 -0.436217 3.050726 0.000000 0.000000 0.000000 -8.134659 -1.799373 2.566488 -61.209715 9.210822 18.783823 -3.518324 -19.548387 -0.004288 -2.077523 2.156660 -0.039021 -0.058708 -0.056200 0.000000 0.000000 0.000000 0.000000 0.000000 0.000000 0.000000 21.335675 7.752162 -1.948834 88.285815 28.118026 40.794586 1.434125 46.073428 0.008864 4.524067 10.953881 0.454099 -0.078804 -0.300553 -0.000000 0.000000 0.000000 0.000000 0.000000 0.000000 0.000000 
-2.524785 16.251480 -0.594327 11.205273 66.010117 36.961813 -7.203720 -1.597183 -2.064800 -8.849713 -3.025206 -52.445098 -2.126983 1.952427 36.096985 0.533063 1.651469 -3.274017 0.288400 -0.000000 -40.472600 12.270278 1.433714 -1.540486 -3.273502 11.000505 -33.269769 -0.583792 -4.395838 62.152991 -0.768568 -1.501689 -15.165824 0.236200 0.000000 -55.315300 -5.414251 1.676555 7.945847 -2.291412 1.944356 -1.664270 -6.586872 1.840303 -0.610980 10.326098 7.310588 6.274236 -4.645002 -0.441912 3.138469 0.000000 0.000000 0.000000 -8.490383 -2.266884 2.585157 -60.771052 8.272834 19.659739 -3.555013 -18.246010 -0.004284 -2.171759 2.155703 -0.040821 -0.058644 -0.053756 0.000000 0.000000 0.000000 0.000000 0.000000 0.000000 0.000000 21.475252 7.886445 -2.058318 88.266268 28.118931 39.749003 1.401770 45.494220 0.006508 4.119162 11.407100 0.430689 -0.076615 -0.299884 -0.000000 0.000000 0.000000 0.000000 0.000000 0.000000 0.000000 
-2.422960 16.234669 -0.589803 11.407208 65.545118 36.737841 -7.161180 -1.569534 -2.354038 -9.441437 -2.681564 -51.960482 -2.154764 2.039632 37.393330 0.598040 1.838136 -4.795225 0.215900 0.000000 -40.378500 12.420964 1.461795 -1.678225 -3.341580 10.823725 -33.421687 -0.838160 -4.540634 63.812027 -0.899208 -2.558780 -13.950527 0.272001 0.000000 -54.509100 -5.570548 1.737132 8.437387 -2.338913 2.010508 -1.549871 -6.614824 1.909729 -0.604507 10.109145 7.666524 6.748040 -4.725254 -0.447376 3.236422 0.000000 0.000000 0.000000 -8.824375 -2.773078 2.583461 -60.481746 7.109683 20.235046 -3.587068 -16.626437 -0.004207 -2.163898 2.251145 -0.042319 -0.058585 -0.049512 0.000000 0.000000 0.000000 0.000000 0.000000 0.000000 0.000000 21.536031 7.978161 -2.176802 88.164927 28.075844 38.517870 1.373994 44.835757 0.003898 3.603576 11.884583 0.392782 -0.072553 -0.297621 -0.000000 0.000000 0.000000 0.000000 0.000000 0.000000 0.000000 
-2.319840 16.227126 -0.586761 11.436897 65.091663 36.329548 -7.140311 -1.550221 -2.617408 -9.886029 -2.350973 -51.310334 -2.177735 2.098537 38.398363 0.663997 2.037925 -6.181491 0.138800 -0.000000 -40.518400 12.538607 1.482002 -1.819058 -3.273537 10.659876 -33.485283 -1.073461 -4.662783 65.276676 -1.068770 -3.795578 -12.786499 0.288500 -0.000000 -52.899800 -5.631138 1.820883 8.910938 -2.365729 2.098763 -1.421873 -6.628148 2.002200 -0.544773 9.868226 7.983375 7.223487 -4.801233 -0.452116 3.332782 0.000000 0.000000 0.000000 -9.105226 -3.142923 2.553940 -60.353487 5.530627 20.637081 -3.609962 -14.614378 -0.003986 -2.005134 2.428243 -0.042010 -0.058422 -0.042614 0.000000 0.000000 0.000000 0.000000 0.000000 0.000000 0.000000 21.516077 8.012506 -2.313442 88.002595 28.011269 37.153560 1.353221 44.102971 0.001224 2.997273 12.361419 0.340079 -0.066738 -0.293382 -0.000000 0.000000 0.000000 0.000000 0.000000 0.000000 0.000000 
-2.214937 16.228016 -0.584552 11.322979 64.647488 35.774116 -7.140996 -1.536555 -2.848055 -10.197927 -2.038648 -50.529413 -2.190958 2.132575 39.141207 0.732116 2.278597 -7.365082 0.063600 -0.000000 -40.846400 12.626185 1.493819 -1.957016 -3.081967 10.495507 -33.485897 -1.284309 -4.764438 66.561288 -1.274632 -5.197306 -11.749831 0.281300 0.000000 -50.399300 -5.608079 1.921611 9.347205 -2.374170 2.204047 -1.288045 -6.630180 2.112249 -0.446008 9.615654 8.257549 7.700106 -4.871104 -0.456201 3.428673 0.000000 0.000000 0.000000 -9.342576 -3.439405 2.498440 -60.373356 3.673272 20.730225 -3.618729 -12.329422 -0.003663 -1.651316 2.704200 -0.038098 -0.057506 -0.033162 0.000000 0.000000 0.000000 0.000000 0.000000 0.000000 0.000000 21.425148 7.991548 -2.457093 87.781354 27.909939 35.672602 1.339658 43.305005 -0.001328 2.332045 12.805179 0.274775 -0.059756 -0.287211 -0.000000 0.000000 0.000000 0.000000 0.000000 0.000000 0.000000 
-2.108070 16.236352 -0.582370 11.102234 64.211352 35.119115 -7.161194 -1.524878 -3.040989 -10.400407 -1.751105 -49.654820 -2.191140 2.145421 39.653950 0.803486 2.583453 -8.305014 -0.005000 0.000000 -41.297200 12.687803 1.497899 -2.087648 -2.786220 10.313591 -33.452888 -1.466611 -4.848324 67.680254 -1.510913 -6.731952 -10.913150 0.254000 -0.000001 -46.952200 -5.517652 2.030316 9.731156 -2.367421 2.318235 -1.152956 -6.624167 2.231628 -0.313283 9.363678 8.486417 8.165557 -4.933490 -0.459561 3.521730 0.000000 0.000000 0.000000 -9.541211 -3.659650 2.418359 -60.511939 1.592461 20.498244 -3.607401 -9.871530 -0.003304 -1.047374 3.064222 -0.026683 -0.055165 -0.021352 0.000000 0.000000 0.000000 0.000000 0.000000 0.000000 0.000000 21.276325 7.919445 -2.602178 87.509918 27.768230 34.099091 1.333442 42.449465 -0.003587 1.646154 13.184426 0.200671 -0.052221 -0.279159 0.000000 0.000000 0.000000 0.000000 0.000000 0.000000 0.000000 
-1.999378 16.251192 -0.579303 10.816045 63.782519 34.418202 -7.197287 -1.511027 -3.193764 -10.522756 -1.493203 -48.723486 -2.177493 2.140813 39.968666 0.878787 2.965645 -8.989190 -0.064100 0.000000 -41.794800 12.728055 1.495978 -2.207796 -2.410497 10.097834 -33.416594 -1.618052 -4.917017 68.644138 -1.769143 -8.352064 -10.331695 0.219000 -0.000000 -42.623000 -5.378380 2.136469 10.052973 -2.349343 2.431294 -1.018433 -6.614144 2.350381 -0.144470 9.123003 8.664916 8.597682 -4.988204 -0.462051 3.606644 0.000000 0.000000 0.000000 -9.708905 -3.753252 2.314701 -60.724625 -0.709356 20.059449 -3.569959 -7.352178 -0.003039 -0.153562 3.476825 -0.003068 -0.050856 -0.007673 0.000000 0.000000 0.000000 0.000000 0.000000 0.000000 0.000000 21.087817 7.797746 -2.747341 87.200896 27.596139 32.471837 1.334858 41.541034 -0.005423 0.976492 13.472883 0.123265 -0.044617 -0.269313 0.000000 0.000000 0.000000 0.000000 0.000000 0.000000 0.000000 
